{
  "accessors": [
    {
      "bufferView": 2,
      "componentType": 5126,
      "count": 5538,
      "max": [
        0.29176372289657593,
        0.302887886762619,
        0.2924574613571167
      ],
      "min": [
        -0.2940378785133362,
        -0.2942805588245392,
        -0.2903239130973816
      ],
      "type": "VEC3"
    },
    {
      "bufferView": 2,
      "byteOffset": 66456,
      "componentType": 5126,
      "count": 5538,
      "max": [
        0.9998566508293152,
        0.9997676610946655,
        0.9997432231903076
      ],
      "min": [
        -0.9998381733894348,
        -0.9998496174812317,
        -0.9997759461402893
      ],
      "type": "VEC3"
    },
    {
      "bufferView": 3,
      "componentType": 5126,
      "count": 5538,
      "max": [
        0.98714280128479,
        0.9984184503555298,
        0.9992904663085938,
        1.0
      ],
      "min": [
        -0.9776735901832581,
        -0.9954913854598999,
        -0.9708258509635925,
        1.0
      ],
      "type": "VEC4"
    },
    {
      "bufferView": 1,
      "componentType": 5126,
      "count": 5538,
      "max": [
        0.9995061159133911,
        0.7782715559005737
      ],
      "min": [
        0.0004938794299960136,
        0.0004938592319376767
      ],
      "type": "VEC2"
    },
    {
      "bufferView": 1,
      "byteOffset": 44304,
      "componentType": 5126,
      "count": 5538,
      "max": [
        0.9995061159133911,
        0.7782715559005737
      ],
      "min": [
        0.0004938794299960136,
        0.0004938592319376767
      ],
      "type": "VEC2"
    },
    {
      "bufferView": 1,
      "byteOffset": 88608,
      "componentType": 5126,
      "count": 5538,
      "max": [
        0.9995061159133911,
        0.7782715559005737
      ],
      "min": [
        0.0004938794299960136,
        0.0004938592319376767
      ],
      "type": "VEC2"
    },
    {
      "bufferView": 0,
      "componentType": 5125,
      "count": 29634,
      "type": "SCALAR"
    }
  ],
  "asset": {
    "extras": {
      "author": "MuseModels (https://sketchfab.com/MuseModels)",
      "license": "SKETCHFAB Standard (https://sketchfab.com/licenses)",
      "source": "https://sketchfab.com/3d-models/earth-c7c75d22313f4600a5f00dd0bee2c723",
      "title": "Earth"
    },
    "generator": "Sketchfab-16.12.0",
    "version": "2.0"
  },
  "bufferViews": [
    {
      "buffer": 0,
      "byteLength": 118536,
      "name": "floatBufferViews",
      "target": 34963
    },
    {
      "buffer": 0,
      "byteLength": 132912,
      "byteOffset": 118536,
      "byteStride": 8,
      "name": "floatBufferViews",
      "target": 34962
    },
    {
      "buffer": 0,
      "byteLength": 132912,
      "byteOffset": 251448,
      "byteStride": 12,
      "name": "floatBufferViews",
      "target": 34962
    },
    {
      "buffer": 0,
      "byteLength": 88608,
      "byteOffset": 384360,
      "byteStride": 16,
      "name": "floatBufferViews",
      "target": 34962
    }
  ],
  "buffers": [
    {
      "byteLength": 472968,
      "uri": "scene.bin"
    }
  ],
  "images": [
    {
      "uri": "textures/base_material_baseColor.jpeg"
    },
    {
      "uri": "textures/base_material_metallicRoughness.png"
    },
    {
      "uri": "textures/base_material_normal.png"
    }
  ],
  "materials": [
    {
      "doubleSided": true,
      "name": "base_material",
      "normalTexture": {
        "index": 2
      },
      "pbrMetallicRoughness": {
        "baseColorTexture": {
          "index": 0
        },
        "metallicRoughnessTexture": {
          "index": 1
        }
      }
    }
  ],
  "meshes": [
    {
      "name": "mesh_base_material_0",
      "primitives": [
        {
          "attributes": {
            "NORMAL": 1,
            "POSITION": 0,
            "TANGENT": 2,
            "TEXCOORD_0": 3,
            "TEXCOORD_1": 4,
            "TEXCOORD_2": 5
          },
          "indices": 6,
          "material": 0,
          "mode": 4
        }
      ]
    }
  ],
  "nodes": [
    {
      "children": [
        1
      ],
      "matrix": [
        1.0,
        0.0,
        0.0,
        0.0,
        0.0,
        2.220446049250313e-16,
        -1.0,
        0.0,
        0.0,
        1.0,
        2.220446049250313e-16,
        0.0,
        0.0,
        0.0,
        0.0,
        1.0
      ],
      "name": "Sketchfab_model"
    },
    {
      "children": [
        2
      ],
      "matrix": [
        0.009999999776482582,
        0.0,
        0.0,
        0.0,
        0.0,
        0.0,
        0.009999999776482582,
        0.0,
        0.0,
        -0.009999999776482582,
        0.0,
        0.0,
        0.0,
        0.0,
        0.0,
        1.0
      ],
      "name": "49f3cb9b1dd9_rotating_earth__4k_.fbx"
    },
    {
      "children": [
        3
      ],
      "name": "RootNode"
    },
    {
      "children": [
        4
      ],
      "matrix": [
        167.3673095703125,
        0.0,
        0.0,
        0.0,
        0.0,
        167.36730957031233,
        7.315857455134598e-06,
        0.0,
        0.0,
        -7.315857455134598e-06,
        167.36730957031233,
        0.0,
        0.0,
        0.0,
        0.0,
        1.0
      ],
      "name": "mesh"
    },
    {
      "mesh": 0,
      "name": "mesh_base_material_0"
    }
  ],
  "samplers": [
    {
      "magFilter": 9729,
      "minFilter": 9987,
      "wrapS": 10497,
      "wrapT": 10497
    }
  ],
  "scene": 0,
  "scenes": [
    {
      "name": "Sketchfab_Scene",
      "nodes": [
        0
      ]
    }
  ],
  "textures": [
    {
      "sampler": 0,
      "source": 0
    },
    {
      "sampler": 0,
      "source": 1
    },
    {
      "sampler": 0,
      "source": 2
    }
  ]
}
