{"accessors" : [{"bufferView" : 0, "byteOffset" : 0, "componentType" : 5123, "count" : 54288, "type" : "SCALAR", "max" : [9325], "min" : [0]}, {"bufferView" : 1, "byteOffset" : 0, "componentType" : 5126, "count" : 9326, "type" : "VEC3", "max" : [1.5930089950561523, 4.836684226989746, 0.5272369980812073], "min" : [-1.5930089950561523, 1.2523930072784424, -0.7396810054779053], "name" : "POSITION"}], "asset" : {"generator" : "Aspose.3D 24.6.0", "version" : "2.0"}, "buffers" : [{"uri" : "data:application/octet-stream;base64,", "byteLength" : 220496}], "bufferViews" : [{"buffer" : 0, "byteOffset" : 0, "byteLength" : 108576, "target" : 34963}, {"buffer" : 0, "byteOffset" : 108580, "byteLength" : 111912, "byteStride" : 12, "target" : 34962}], "meshes" : [{"primitives" : [{"attributes" : {"POSITION" : 1}, "indices" : 0, "mode" : 4}], "name" : ""}], "nodes" : [{"mesh" : 0, "name" : ""}], "scene" : 0, "scenes" : [{"nodes" : [0]}]}