<svg id="visual" viewBox="0 0 960 300" width="960" height="300" xmlns="http://www.w3.org/2000/svg" xmlns:xlink="http://www.w3.org/1999/xlink" version="1.1"><rect x="0" y="0" width="960" height="300" fill="#ebebeb"></rect><path d="M0 45L22.8 44.7C45.7 44.3 91.3 43.7 137 43.3C182.7 43 228.3 43 274 44.2C319.7 45.3 365.3 47.7 411.2 55.5C457 63.3 503 76.7 548.8 79.3C594.7 82 640.3 74 686 76.7C731.7 79.3 777.3 92.7 823 88.7C868.7 84.7 914.3 63.3 937.2 52.7L960 42L960 0L937.2 0C914.3 0 868.7 0 823 0C777.3 0 731.7 0 686 0C640.3 0 594.7 0 548.8 0C503 0 457 0 411.2 0C365.3 0 319.7 0 274 0C228.3 0 182.7 0 137 0C91.3 0 45.7 0 22.8 0L0 0Z" fill="#004e98" stroke-linecap="round" stroke-linejoin="miter"></path></svg>