<svg id="visual" viewBox="0 0 900 600" width="900" height="600" xmlns="http://www.w3.org/2000/svg" xmlns:xlink="http://www.w3.org/1999/xlink" version="1.1"><rect x="0" y="0" width="900" height="600" fill="#ebebeb"></rect><path d="M0 97L21.5 111.3C43 125.7 86 154.3 128.8 152.8C171.7 151.3 214.3 119.7 257.2 116.5C300 113.3 343 138.7 385.8 150.7C428.7 162.7 471.3 161.3 514.2 166.8C557 172.3 600 184.7 642.8 174.5C685.7 164.3 728.3 131.7 771.2 117.2C814 102.7 857 106.3 878.5 108.2L900 110L900 0L878.5 0C857 0 814 0 771.2 0C728.3 0 685.7 0 642.8 0C600 0 557 0 514.2 0C471.3 0 428.7 0 385.8 0C343 0 300 0 257.2 0C214.3 0 171.7 0 128.8 0C86 0 43 0 21.5 0L0 0Z" fill="#004e98" stroke-linecap="round" stroke-linejoin="miter"></path></svg>